<svg width="304" height="368" viewBox="0 0 304 368" fill="none" xmlns="http://www.w3.org/2000/svg">
<path d="M298.522 157.508V52.0654C298.522 23.313 275.643 0 247.425 0H54.3772C26.1596 0 3.28025 23.313 3.28025 52.0654V80.1188C1.46871 80.8886 0.196777 82.707 0.196777 84.8317V99.7558C0.196777 101.88 1.46871 103.699 3.28025 104.469V124.498C1.46871 125.268 0.196777 127.086 0.196777 129.211V158.667C0.196777 160.791 1.46871 162.61 3.28025 163.38V173.983C1.46871 174.753 0.196777 176.572 0.196777 178.696V208.152C0.196777 210.277 1.46871 212.095 3.28025 212.865V368H298.522V229.34C301.109 229.14 303.148 226.94 303.148 224.254V162.594C303.148 159.908 301.109 157.708 298.522 157.508Z" fill="white"/>
</svg>
